<?xml version="1.0" encoding="utf-8"?>
<!-- Generator: Adobe Illustrator 21.1.0, SVG Export Plug-In . SVG Version: 6.00 Build 0)  -->
<svg version="1.1" id="Layer_1" xmlns="http://www.w3.org/2000/svg" xmlns:xlink="http://www.w3.org/1999/xlink" x="0px" y="0px"
	 viewBox="0 0 35.8 11.3" style="enable-background:new 0 0 35.8 11.3;" xml:space="preserve">
<style type="text/css">
	.st0{opacity:0.03;}
</style>
<g class="st0">
	<path d="M0,8.9V0.3h2.6c0.8,0,1.4,0.2,2,0.5S5.7,1.6,6,2.3s0.5,1.3,0.5,2.1v0.4c0,0.8-0.2,1.5-0.5,2.1S5.2,8,4.7,8.3
		s-1.3,0.5-2,0.5H0z M1.8,1.7v5.7h0.8c0.7,0,1.2-0.2,1.6-0.7s0.5-1.1,0.6-1.9V4.4c0-0.9-0.2-1.5-0.5-2S3.3,1.7,2.6,1.7H1.8z"/>
	<path d="M10.6,9C9.7,9,8.9,8.7,8.3,8.1S7.5,6.8,7.5,5.8V5.7C7.5,5,7.6,4.5,7.8,4s0.6-0.9,1-1.2s1-0.4,1.5-0.4c0.9,0,1.5,0.3,2,0.8
		s0.7,1.3,0.7,2.3v0.7h-4c0.1,0.4,0.2,0.7,0.5,1s0.6,0.4,1,0.4c0.7,0,1.2-0.2,1.5-0.7l0.8,0.9c-0.3,0.4-0.6,0.6-1,0.8S11.1,9,10.6,9
		z M10.4,3.8c-0.3,0-0.6,0.1-0.8,0.3s-0.3,0.6-0.4,1h2.4V4.9c0-0.4-0.1-0.7-0.3-0.9S10.8,3.8,10.4,3.8z"/>
	<path d="M17.6,7.1c0-0.2-0.1-0.4-0.3-0.5s-0.5-0.2-1-0.3c-1.5-0.3-2.3-1-2.3-1.9c0-0.6,0.2-1,0.7-1.4s1.1-0.6,1.8-0.6
		c0.8,0,1.4,0.2,1.9,0.6s0.7,0.9,0.7,1.5h-1.7c0-0.2-0.1-0.4-0.2-0.6s-0.4-0.2-0.7-0.2c-0.3,0-0.5,0.1-0.7,0.2s-0.2,0.3-0.2,0.5
		c0,0.2,0.1,0.3,0.3,0.5S16.4,5,16.8,5s0.8,0.2,1.1,0.3c0.9,0.3,1.3,0.9,1.3,1.7c0,0.6-0.2,1-0.7,1.4S17.4,9,16.6,9
		c-0.5,0-1-0.1-1.4-0.3s-0.7-0.4-1-0.8s-0.4-0.7-0.4-1.1h1.6c0,0.3,0.1,0.5,0.3,0.7s0.5,0.2,0.8,0.2c0.3,0,0.6-0.1,0.7-0.2
		S17.6,7.3,17.6,7.1z"/>
	<path d="M20.3,0.9c0-0.3,0.1-0.5,0.3-0.6S21,0,21.3,0c0.3,0,0.5,0.1,0.7,0.2s0.3,0.4,0.3,0.6c0,0.3-0.1,0.5-0.3,0.6
		s-0.4,0.2-0.7,0.2s-0.5-0.1-0.7-0.2S20.3,1.1,20.3,0.9z M22.1,8.9h-1.7V2.5h1.7V8.9z"/>
	<path d="M23.3,5.6c0-1,0.2-1.8,0.7-2.3s1.1-0.9,1.9-0.9c0.7,0,1.2,0.2,1.6,0.7l0.1-0.6h1.5v6.1c0,0.6-0.1,1-0.4,1.4
		s-0.6,0.7-1.1,0.9s-1,0.3-1.6,0.3c-0.5,0-0.9-0.1-1.4-0.3s-0.8-0.4-1-0.7l0.8-1C24.8,9.8,25.3,10,26,10c0.4,0,0.8-0.1,1-0.4
		s0.4-0.6,0.4-1V8.3C27,8.8,26.5,9,25.8,9c-0.8,0-1.4-0.3-1.8-0.9S23.3,6.7,23.3,5.6L23.3,5.6z M25,5.8c0,0.6,0.1,1,0.3,1.4
		c0.2,0.3,0.5,0.5,0.9,0.5c0.5,0,0.9-0.2,1.1-0.6V4.4c-0.2-0.4-0.6-0.6-1.1-0.6c-0.4,0-0.7,0.2-1,0.5S25,5.1,25,5.8z"/>
	<path d="M31.9,2.5L32,3.2c0.5-0.6,1.1-0.8,1.8-0.8c0.7,0,1.2,0.2,1.5,0.6s0.5,1,0.5,1.8v4.1h-1.7V4.8c0-0.4-0.1-0.6-0.2-0.8
		s-0.4-0.2-0.8-0.2c-0.5,0-0.8,0.2-1.1,0.6v4.5h-1.7V2.5H31.9z"/>
</g>
<g>
</g>
<g>
</g>
<g>
</g>
<g>
</g>
<g>
</g>
<g>
</g>
</svg>
