<?xml version="1.0" encoding="utf-8"?>
<!-- Generator: Adobe Illustrator 21.1.0, SVG Export Plug-In . SVG Version: 6.00 Build 0)  -->
<svg version="1.1" id="Layer_1" xmlns="http://www.w3.org/2000/svg" xmlns:xlink="http://www.w3.org/1999/xlink" x="0px" y="0px"
	 viewBox="0 0 123 141.4" style="enable-background:new 0 0 123 141.4;" xml:space="preserve">
<style type="text/css">
	.st0{fill:#2adcaa;}
</style>
<g>
	<path class="st0" d="M49,0c-3.5,0-6.9,0.7-10,1.9c6,3.6,10,10.2,10,17.6c0,11.4-9.3,20.7-20.8,20.7c-0.9,0-1.7-0.1-2.5-0.2
		C30.3,48.2,39,53.7,49,53.7c14.8,0,26.9-12,26.9-26.8C75.9,12,63.9,0,49,0z"/>
</g>
<path d="M28.2,40.2c-8.2,0-15.3-4.7-18.7-11.6C3.8,32.6,0,39.3,0,46.8C0,59.1,10,69,22.2,69c12.3,0,22.2-9.9,22.2-22.2
	c0-4.1-1.1-8-3.1-11.3C37.8,38.5,33.2,40.2,28.2,40.2z"/>
<path class="st0" d="M78.2,82.2c6.8,0,12.3,5.5,12.3,12.3c0,6.8-5.5,12.3-12.3,12.3c-6.8,0-12.3-5.5-12.3-12.3
	C65.9,87.7,71.4,82.2,78.2,82.2z"/>
<path d="M112.8,121c5.6,0,10.2,4.6,10.2,10.2c0,5.6-4.6,10.2-10.2,10.2c-5.6,0-10.2-4.6-10.2-10.2C102.6,125.6,107.1,121,112.8,121z
	"/>
<g>
</g>
<g>
</g>
<g>
</g>
<g>
</g>
<g>
</g>
<g>
</g>
</svg>
