<?xml version="1.0" encoding="utf-8"?>
<!-- Generator: Adobe Illustrator 21.1.0, SVG Export Plug-In . SVG Version: 6.00 Build 0)  -->
<svg version="1.1" id="Layer_1" xmlns="http://www.w3.org/2000/svg" xmlns:xlink="http://www.w3.org/1999/xlink" x="0px" y="0px"
	 viewBox="0 0 687.9 637" style="enable-background:new 0 0 687.9 637;" xml:space="preserve">
<style type="text/css">
	.st0{filter:url(#filter);}
	.st1{fill:#2A9393;}
	.st2{fill:#54C0A4;}
	.st3{fill:#5BC1A0;}
	.st4{fill:#387E87;}
	.st5{filter:url(#filter-2);}
	.st6{filter:url(#filter-3);}
</style>
<filter  filterUnits="userSpaceOnUse" id="filter-3">
	<feFlood  flood-color="#fff" result="flood"></feFlood>
	<feComposite  in2="SourceGraphic" operator="in" result="composite"></feComposite>
	<feBlend  in2="SourceGraphic" mode="normal" result="blend"></feBlend>
</filter>
<filter  filterUnits="userSpaceOnUse" id="filter-2">
	<feFlood  result="flood"></feFlood>
	<feComposite  in2="SourceGraphic" operator="in" result="composite"></feComposite>
	<feBlend  in2="SourceGraphic" mode="normal" result="blend"></feBlend>
</filter>
<filter  filterUnits="userSpaceOnUse" id="filter">
	<feFlood  flood-color="#2adcaa" result="flood"></feFlood>
	<feComposite  in2="SourceGraphic" operator="in" result="composite"></feComposite>
	<feBlend  in2="SourceGraphic" mode="normal" result="blend"></feBlend>
</filter>
<g class="st0">
	<path id="Shape_1_copy_4_1_" class="st1" d="M142.6,99.7c0,0-56.1,24.6-98.9,82.6C7.7,231.3,1.5,283,0.2,309.5
		c-3.1,63.6,28.8,138.2,108.4,214c91,86.6,180.5,120.6,253,112.3s146-51.7,207.3-151.5c-101.6,165.4-236.1,160-412.4,15.9
		C-65.6,318.7,142.6,99.7,142.6,99.7L142.6,99.7z"/>
	<circle id="Ellipse_4_copy_10_1_" class="st2" cx="80" cy="564.1" r="18"/>
	<circle id="Ellipse_4_copy_10-2_1_" class="st3" cx="608" cy="170.7" r="22"/>
	<path id="Ellipse_4_copy_10-3_1_" class="st3" d="M556,2c26.5,0,47.9,21.5,47.8,48c0,26.5-21.5,47.9-48,47.8
		c-26.4,0-47.8-21.5-47.8-47.9C508,23.4,529.5,2,556,2z"/>
	<path id="Shape_2_copy_3_1_" class="st4" d="M291.5,127.3c0,0-112.3,43.3-106.3,108.1c2.8,30.1,10.7,55.6,19.1,77.3
		c11.2,28.8,31.2,98.7,37.1,122.1c13.1,51.4,34.7,116.3,70.2,119.5c46.6,3.1,54.4-80.5,60.7-140.3c3.1-29.3,4.6-50.3,12.6-57.8
		c5.9-5.5,12.6-9.2,23.7-11.3c15.6-3,32-0.5,44.4-5.6c11.2-4.5,19.3-14.6,21.3-26.5c1.9-10.5-3.8-22.6-13.8-39.2
		c14.2,23.6-5.1,41.2-20.2,48.7c-16.5,8.2-34.3,8-47.8,13.8c-8.9,3.8-15.6,8-18.1,12.7c-6.6,12.9-7.6,40.4-8,70.6
		c-0.8,53.9-2.3,116.4-47.2,120.1c-22.1,1.8-38.7-11.5-47.8-38.1c-7.6-21.7-12.9-44-15.9-66.7c-3.4-24.4-7.6-43.8-10.6-63.6
		c-14.3-93.3-34-99.9-31.9-165.3C214.2,161.3,291.5,127.3,291.5,127.3L291.5,127.3z"/>
</g>
<g id="Group_1_copy" class="st5">
	<path id="Shape_1_copy_4-2_1_" class="st3" d="M425.6,113.7c-4.2-26-101.5-34.2-160.7-23.3c-33.9,6.2-58.4,14.7-98.8,36.5
		C73.7,176.6,50.8,247.6,48.2,300.2S72,414.5,137.9,477.2c75.3,71.6,149.4,99.7,209.4,92.8s120.8-42.7,171.5-125.3
		c49.7-80.9,52-148.7,38.7-189.2c-11.7-35.6-41.1-74.7-99.4-80.6c-69.8-7.1-142.2,16.9-134.6,60.4c5.5,31.5,31.7,27,76.5,21.9
		c7.6-0.9,28.8,0.6,32.5,26.3c1.2,8.5-8.5,22.6-22.9,28c-19.3,7.3-45.3,7.8-51.9,21.9c-18.8,39.8,13.8,153.5-48.4,156.8
		c-20.8,1.1-37.9-12.9-49.4-81.3c-4.4-26.1-9.2-61.1-17.3-96c-12.1-52.4-21.6-65.2-19.6-91.7c2-24.9,11.1-41.6,53.7-65.7
		c14.8-8.4,42.3-17.4,66.1-21.4C386.3,127.1,427.7,127,425.6,113.7L425.6,113.7z"/>
	<path id="Shape_1_copy_4-3_1_" class="st1" d="M166.1,126.8c0,0-46.4,20.4-81.8,68.3c-29.9,40.5-35,83.2-36.1,105.1
		c-2.6,52.6,23.9,114.3,89.7,176.9c75.3,71.6,149.4,99.7,209.4,92.8s120.8-42.7,171.5-125.3c-84.1,136.7-195.4,132.3-341.3,13.1
		C-6.3,307.8,166.1,126.8,166.1,126.8L166.1,126.8z"/>
	<path id="Ellipse_4_copy_10-4_1_" class="st2" d="M77.3,508.3c8.2,0,14.8,6.7,14.8,14.9S85.4,538,77.2,538
		c-8.2,0-14.8-6.7-14.8-14.9C62.4,514.9,69.1,508.3,77.3,508.3C77.3,508.3,77.3,508.3,77.3,508.3z"/>
	<path id="Ellipse_4_copy_10-5_1_" class="st3" d="M669.8,218.1c10,0,18.1,8.2,18.1,18.2c0,10-8.2,18.1-18.2,18.1
		c-10,0-18.1-8.1-18.1-18.2C651.6,226.2,659.8,218.1,669.8,218.1z"/>
	<circle id="Ellipse_4_copy_10-6_1_" class="st3" cx="508.2" cy="85.6" r="39.7"/>
	<path id="Shape_2_copy_3-2_1_" class="st4" d="M289.2,149.6c0,0-93,35.8-88,89.3c2.3,24.9,8.9,46,15.8,63.9
		c9.2,23.8,25.8,81.6,30.7,100.9c10.8,42.5,28.7,96.1,58.1,98.8c38.6,2.6,45-66.6,50.3-116c2.5-24.2,3.8-41.6,10.4-47.8
		c4.9-4.6,10.4-7.6,19.6-9.4c12.9-2.5,26.5-0.4,36.7-4.6c9.3-3.7,16-12,17.6-21.9c1.6-8.7-3.1-18.7-11.4-32.4
		c11.8,19.5-4.2,34.1-16.7,40.3c-13.6,6.8-28.4,6.7-39.6,11.4c-7.4,3.1-13,6.6-15,10.5c-5.5,10.6-6.3,33.4-6.6,58.4
		c-0.7,44.6-1.9,96.2-39.1,99.3c-18.3,1.5-32-9.5-39.6-31.5c-6.3-17.9-10.7-36.4-13.2-55.2c-2.8-20.1-6.3-36.2-8.8-52.6
		c-11.8-77.2-28.1-82.6-26.4-136.6C225.3,177.7,289.2,149.6,289.2,149.6L289.2,149.6z"/>
</g>
<g id="Group_1_copy_2" class="st6">
	<path id="Shape_1_copy_4-4_1_" class="st3" d="M444.7,161c-3.9-24.2-94.8-31.9-150.1-21.7c-31.7,5.8-54.6,13.7-92.3,34
		C116,219.7,94.6,285.8,92.2,334.8s22.3,106.5,83.8,164.8c70.3,66.7,139.5,92.8,195.5,86.5s112.8-39.8,160.2-116.7
		c46.4-75.3,48.5-138.5,36.1-176.2c-10.9-33.2-38.4-69.6-92.9-75.1c-65.2-6.6-132.8,15.7-125.7,56.3c5.1,29.3,29.6,25.2,71.5,20.4
		c7.1-0.8,26.9,0.6,30.4,24.5c1.2,7.9-8,21.1-21.4,26.1c-18,6.8-42.3,7.3-48.5,20.4c-17.5,37.1,12.9,143-45.2,146
		c-19.4,1-35.4-12-46.1-75.7c-4.1-24.3-8.6-56.9-16.1-89.4c-11.3-48.8-20.2-60.7-18.3-85.4c1.8-23.2,10.4-38.7,50.1-61.2
		c13.8-7.8,39.5-16.2,61.8-19.9C408,173.6,446.7,173.4,444.7,161L444.7,161z"/>
	<path id="Shape_1_copy_4-5_1_" class="st1" d="M202.3,173.3c0,0-43.4,19-76.4,63.6c-27.9,37.7-32.7,77.5-33.7,97.9
		c-2.4,49,22.3,106.5,83.8,164.8c70.3,66.7,139.5,92.8,195.5,86.5s112.8-39.8,160.2-116.7C453.2,596.8,349.3,592.6,213,481.6
		C41.3,341.9,202.3,173.3,202.3,173.3L202.3,173.3z"/>
	<path id="Ellipse_4_copy_10-7_1_" class="st2" d="M139.9,528.6c7.6,0,13.8,6.3,13.8,13.9s-6.3,13.8-13.9,13.8
		c-7.6,0-13.8-6.2-13.8-13.8C126.1,534.7,132.3,528.5,139.9,528.6z"/>
	<path id="Ellipse_4_copy_10-8_1_" class="st3" d="M608,221c9.3,0,16.9,7.7,16.8,17c0,9.3-7.7,16.9-17,16.8
		c-9.3,0-16.8-7.6-16.8-16.9C591,228.6,598.6,221,608,221L608,221z"/>
	<path id="Ellipse_4_copy_10-9_1_" class="st3" d="M518.8,0c20.4,0.1,36.8,16.7,36.7,37.1c-0.1,20.4-16.7,36.8-37.1,36.7
		c-20.3-0.1-36.7-16.6-36.7-36.9C481.7,16.5,498.4-0.1,518.8,0C518.8,0,518.8,0,518.8,0z"/>
	<path id="Shape_2_copy_3-3_1_" class="st4" d="M317.3,194.5c0,0-86.8,33.4-82.2,83.2c2.2,23.2,8.3,42.8,14.8,59.6
		c8.6,22.2,24.1,76,28.7,94c10.1,39.6,26.8,89.6,54.3,92c36,2.4,42.1-62,47-108.1c2.4-22.5,3.6-38.7,9.7-44.5
		c4.6-4.3,9.7-7.1,18.3-8.7c12-2.3,24.7-0.4,34.3-4.3c8.7-3.5,14.9-11.2,16.4-20.4c1.5-8.1-2.9-17.4-10.7-30.2
		c11,18.2-4,31.8-15.6,37.5c-12.7,6.3-26.5,6.2-37,10.6c-6.9,2.9-12.1,6.1-14,9.8c-5.1,9.9-5.9,31.1-6.2,54.4
		c-0.6,41.5-1.8,89.6-36.5,92.5c-17.1,1.4-29.9-8.9-37-29.4c-5.8-16.7-10-33.9-12.3-51.4c-2.6-18.8-5.9-33.7-8.2-49
		c-11-71.9-26.2-77-24.6-127.3C257.6,220.7,317.3,194.5,317.3,194.5L317.3,194.5z"/>
</g>
<g class="st0">
	<path id="Shape_1_copy_4_1_" class="st1" d="M142.6,99.7c0,0-56.1,24.6-98.9,82.6C7.7,231.3,1.5,283,0.2,309.5
		c-3.1,63.6,28.8,138.2,108.4,214c91,86.6,180.5,120.6,253,112.3s146-51.7,207.3-151.5c-101.6,165.4-236.1,160-412.4,15.9
		C-65.6,318.7,142.6,99.7,142.6,99.7L142.6,99.7z"/>
	<circle id="Ellipse_4_copy_10_1_" class="st2" cx="80" cy="564.1" r="18"/>
	<circle id="Ellipse_4_copy_10-2_1_" class="st3" cx="608" cy="170.7" r="22"/>
	<path id="Ellipse_4_copy_10-3_1_" class="st3" d="M556,2c26.5,0,47.9,21.5,47.8,48c0,26.5-21.5,47.9-48,47.8
		c-26.4,0-47.8-21.5-47.8-47.9C508,23.4,529.5,2,556,2z"/>
	<path id="Shape_2_copy_3_1_" class="st4" d="M291.5,127.3c0,0-112.3,43.3-106.3,108.1c2.8,30.1,10.7,55.6,19.1,77.3
		c11.2,28.8,31.2,98.7,37.1,122.1c13.1,51.4,34.7,116.3,70.2,119.5c46.6,3.1,54.4-80.5,60.7-140.3c3.1-29.3,4.6-50.3,12.6-57.8
		c5.9-5.5,12.6-9.2,23.7-11.3c15.6-3,32-0.5,44.4-5.6c11.2-4.5,19.3-14.6,21.3-26.5c1.9-10.5-3.8-22.6-13.8-39.2
		c14.2,23.6-5.1,41.2-20.2,48.7c-16.5,8.2-34.3,8-47.8,13.8c-8.9,3.8-15.6,8-18.1,12.7c-6.6,12.9-7.6,40.4-8,70.6
		c-0.8,53.9-2.3,116.4-47.2,120.1c-22.1,1.8-38.7-11.5-47.8-38.1c-7.6-21.7-12.9-44-15.9-66.7c-3.4-24.4-7.6-43.8-10.6-63.6
		c-14.3-93.3-34-99.9-31.9-165.3C214.2,161.3,291.5,127.3,291.5,127.3L291.5,127.3z"/>
</g>
<g id="Group_1_copy_1_" class="st5">
	<path id="Shape_1_copy_4-2_1_" class="st3" d="M425.6,113.7c-4.2-26-101.5-34.2-160.7-23.3c-33.9,6.2-58.4,14.7-98.8,36.5
		C73.7,176.6,50.8,247.6,48.2,300.2S72,414.5,137.9,477.2c75.3,71.6,149.4,99.7,209.4,92.8s120.8-42.7,171.5-125.3
		c49.7-80.9,52-148.7,38.7-189.2c-11.7-35.6-41.1-74.7-99.4-80.6c-69.8-7.1-142.2,16.9-134.6,60.4c5.5,31.5,31.7,27,76.5,21.9
		c7.6-0.9,28.8,0.6,32.5,26.3c1.2,8.5-8.5,22.6-22.9,28c-19.3,7.3-45.3,7.8-51.9,21.9c-18.8,39.8,13.8,153.5-48.4,156.8
		c-20.8,1.1-37.9-12.9-49.4-81.3c-4.4-26.1-9.2-61.1-17.3-96c-12.1-52.4-21.6-65.2-19.6-91.7c2-24.9,11.1-41.6,53.7-65.7
		c14.8-8.4,42.3-17.4,66.1-21.4C386.3,127.1,427.7,127,425.6,113.7L425.6,113.7z"/>
	<path id="Shape_1_copy_4-3_1_" class="st1" d="M166.1,126.8c0,0-46.4,20.4-81.8,68.3c-29.9,40.5-35,83.2-36.1,105.1
		c-2.6,52.6,23.9,114.3,89.7,176.9c75.3,71.6,149.4,99.7,209.4,92.8s120.8-42.7,171.5-125.3c-84.1,136.7-195.4,132.3-341.3,13.1
		C-6.3,307.8,166.1,126.8,166.1,126.8L166.1,126.8z"/>
	<path id="Ellipse_4_copy_10-4_1_" class="st2" d="M77.3,508.3c8.2,0,14.8,6.7,14.8,14.9S85.4,538,77.2,538
		c-8.2,0-14.8-6.7-14.8-14.9C62.4,514.9,69.1,508.3,77.3,508.3C77.3,508.3,77.3,508.3,77.3,508.3z"/>
	<path id="Ellipse_4_copy_10-5_1_" class="st3" d="M669.8,218.1c10,0,18.1,8.2,18.1,18.2c0,10-8.2,18.1-18.2,18.1
		c-10,0-18.1-8.1-18.1-18.2C651.6,226.2,659.8,218.1,669.8,218.1z"/>
	<circle id="Ellipse_4_copy_10-6_1_" class="st3" cx="508.2" cy="85.6" r="39.7"/>
	<path id="Shape_2_copy_3-2_1_" class="st4" d="M289.2,149.6c0,0-93,35.8-88,89.3c2.3,24.9,8.9,46,15.8,63.9
		c9.2,23.8,25.8,81.6,30.7,100.9c10.8,42.5,28.7,96.1,58.1,98.8c38.6,2.6,45-66.6,50.3-116c2.5-24.2,3.8-41.6,10.4-47.8
		c4.9-4.6,10.4-7.6,19.6-9.4c12.9-2.5,26.5-0.4,36.7-4.6c9.3-3.7,16-12,17.6-21.9c1.6-8.7-3.1-18.7-11.4-32.4
		c11.8,19.5-4.2,34.1-16.7,40.3c-13.6,6.8-28.4,6.7-39.6,11.4c-7.4,3.1-13,6.6-15,10.5c-5.5,10.6-6.3,33.4-6.6,58.4
		c-0.7,44.6-1.9,96.2-39.1,99.3c-18.3,1.5-32-9.5-39.6-31.5c-6.3-17.9-10.7-36.4-13.2-55.2c-2.8-20.1-6.3-36.2-8.8-52.6
		c-11.8-77.2-28.1-82.6-26.4-136.6C225.3,177.7,289.2,149.6,289.2,149.6L289.2,149.6z"/>
</g>
<g id="Group_1_copy_2_1_" class="st6">
	<path id="Shape_1_copy_4-4_1_" class="st3" d="M444.7,161c-3.9-24.2-94.8-31.9-150.1-21.7c-31.7,5.8-54.6,13.7-92.3,34
		C116,219.7,94.6,285.8,92.2,334.8s22.3,106.5,83.8,164.8c70.3,66.7,139.5,92.8,195.5,86.5s112.8-39.8,160.2-116.7
		c46.4-75.3,48.5-138.5,36.1-176.2c-10.9-33.2-38.4-69.6-92.9-75.1c-65.2-6.6-132.8,15.7-125.7,56.3c5.1,29.3,29.6,25.2,71.5,20.4
		c7.1-0.8,26.9,0.6,30.4,24.5c1.2,7.9-8,21.1-21.4,26.1c-18,6.8-42.3,7.3-48.5,20.4c-17.5,37.1,12.9,143-45.2,146
		c-19.4,1-35.4-12-46.1-75.7c-4.1-24.3-8.6-56.9-16.1-89.4c-11.3-48.8-20.2-60.7-18.3-85.4c1.8-23.2,10.4-38.7,50.1-61.2
		c13.8-7.8,39.5-16.2,61.8-19.9C408,173.6,446.7,173.4,444.7,161L444.7,161z"/>
	<path id="Shape_1_copy_4-5_1_" class="st1" d="M202.3,173.3c0,0-43.4,19-76.4,63.6c-27.9,37.7-32.7,77.5-33.7,97.9
		c-2.4,49,22.3,106.5,83.8,164.8c70.3,66.7,139.5,92.8,195.5,86.5s112.8-39.8,160.2-116.7C453.2,596.8,349.3,592.6,213,481.6
		C41.3,341.9,202.3,173.3,202.3,173.3L202.3,173.3z"/>
	<path id="Ellipse_4_copy_10-7_1_" class="st2" d="M139.9,528.6c7.6,0,13.8,6.3,13.8,13.9s-6.3,13.8-13.9,13.8
		c-7.6,0-13.8-6.2-13.8-13.8C126.1,534.7,132.3,528.5,139.9,528.6z"/>
	<path id="Ellipse_4_copy_10-8_1_" class="st3" d="M608,221c9.3,0,16.9,7.7,16.8,17c0,9.3-7.7,16.9-17,16.8
		c-9.3,0-16.8-7.6-16.8-16.9C591,228.6,598.6,221,608,221L608,221z"/>
	<path id="Ellipse_4_copy_10-9_1_" class="st3" d="M518.8,0c20.4,0.1,36.8,16.7,36.7,37.1c-0.1,20.4-16.7,36.8-37.1,36.7
		c-20.3-0.1-36.7-16.6-36.7-36.9C481.7,16.5,498.4-0.1,518.8,0C518.8,0,518.8,0,518.8,0z"/>
	<path id="Shape_2_copy_3-3_1_" class="st4" d="M317.3,194.5c0,0-86.8,33.4-82.2,83.2c2.2,23.2,8.3,42.8,14.8,59.6
		c8.6,22.2,24.1,76,28.7,94c10.1,39.6,26.8,89.6,54.3,92c36,2.4,42.1-62,47-108.1c2.4-22.5,3.6-38.7,9.7-44.5
		c4.6-4.3,9.7-7.1,18.3-8.7c12-2.3,24.7-0.4,34.3-4.3c8.7-3.5,14.9-11.2,16.4-20.4c1.5-8.1-2.9-17.4-10.7-30.2
		c11,18.2-4,31.8-15.6,37.5c-12.7,6.3-26.5,6.2-37,10.6c-6.9,2.9-12.1,6.1-14,9.8c-5.1,9.9-5.9,31.1-6.2,54.4
		c-0.6,41.5-1.8,89.6-36.5,92.5c-17.1,1.4-29.9-8.9-37-29.4c-5.8-16.7-10-33.9-12.3-51.4c-2.6-18.8-5.9-33.7-8.2-49
		c-11-71.9-26.2-77-24.6-127.3C257.6,220.7,317.3,194.5,317.3,194.5L317.3,194.5z"/>
</g>
<g>
</g>
<g>
</g>
<g>
</g>
<g>
</g>
<g>
</g>
<g>
</g>
</svg>
