<?xml version="1.0" standalone="no"?>
<!DOCTYPE svg PUBLIC "-//W3C//DTD SVG 20010904//EN"
 "http://www.w3.org/TR/2001/REC-SVG-20010904/DTD/svg10.dtd">
<svg version="1.0" xmlns="http://www.w3.org/2000/svg"
 width="864.000000pt" height="864.000000pt" viewBox="0 0 864.000000 864.000000"
 preserveAspectRatio="xMidYMid meet">
<metadata>
Created by potrace 1.11, written by Peter Selinger 2001-2013
</metadata>
<g transform="translate(0.000000,864.000000) scale(0.100000,-0.100000)"
fill="#000000" stroke="none">
<path d="M6745 8300 c-111 -29 -165 -58 -252 -134 -64 -57 -141 -167 -152
-221 -2 -5 -7 -16 -13 -22 -6 -7 -7 -13 -4 -13 4 0 2 -8 -3 -18 -22 -42 -30
-181 -16 -271 18 -111 80 -226 173 -318 41 -40 80 -73 87 -73 7 0 15 -4 17 -8
5 -12 87 -48 154 -68 32 -9 91 -18 129 -19 63 -3 90 0 185 19 105 22 270 141
325 234 11 17 23 32 27 32 4 0 8 5 8 10 0 6 9 30 20 53 53 109 65 240 36 393
-2 11 -11 37 -20 57 -8 21 -16 41 -17 45 -1 4 -10 19 -20 34 -10 14 -19 31
-19 37 0 20 -146 157 -202 189 -132 75 -303 99 -443 62z"/>
<path d="M3988 7725 c-2 -3 -64 -7 -136 -10 -73 -3 -149 -7 -169 -9 -36 -4
-137 -15 -193 -21 -14 -2 -25 -4 -25 -5 0 -1 -16 -3 -35 -4 -19 -2 -48 -6 -65
-9 -39 -8 -93 -17 -125 -22 -14 -2 -50 -8 -80 -14 -30 -6 -67 -12 -83 -15 -15
-3 -35 -7 -45 -10 -17 -5 -50 -12 -107 -23 -16 -3 -38 -9 -47 -14 -10 -5 -18
-7 -18 -4 0 2 -17 -1 -37 -9 -21 -7 -58 -19 -83 -26 -64 -18 -132 -40 -150
-47 -8 -3 -17 -7 -20 -8 -43 -11 -138 -47 -183 -71 -16 -8 -35 -14 -43 -14 -8
0 -22 -4 -32 -10 -16 -9 -169 -80 -239 -111 -18 -7 -33 -17 -33 -21 0 -5 -9
-8 -20 -8 -11 0 -20 -5 -20 -12 0 -6 -3 -9 -6 -5 -3 3 -43 -16 -87 -43 -45
-26 -108 -62 -139 -78 -31 -17 -65 -36 -75 -41 -19 -10 -224 -132 -257 -154
-51 -32 -220 -158 -296 -221 -134 -111 -281 -252 -387 -371 -98 -111 -112
-128 -141 -170 -15 -21 -34 -47 -42 -56 -19 -20 -87 -117 -103 -146 -7 -12
-37 -64 -68 -115 -82 -137 -203 -391 -191 -402 3 -3 0 -6 -6 -6 -7 0 -11 -3
-10 -7 2 -5 -9 -42 -24 -83 -27 -77 -67 -207 -73 -238 -2 -9 -4 -17 -5 -17 -2
0 -4 -12 -13 -55 -3 -14 -10 -45 -16 -70 -5 -25 -10 -46 -10 -47 -1 -2 -2 -5
-2 -8 -1 -3 -2 -13 -3 -22 -1 -10 -5 -36 -9 -58 -4 -22 -10 -58 -13 -80 -2
-22 -8 -62 -11 -90 -8 -60 -8 -504 0 -560 3 -22 8 -62 12 -90 3 -27 10 -66 15
-85 5 -19 11 -51 14 -70 3 -19 11 -53 17 -75 6 -22 12 -47 13 -55 2 -8 9 -35
16 -60 8 -25 14 -48 16 -52 1 -5 3 -10 4 -13 1 -3 3 -8 4 -12 5 -24 53 -158
78 -218 16 -38 34 -83 41 -100 26 -64 128 -265 176 -348 28 -49 51 -93 51 -98
0 -5 4 -9 8 -9 5 0 14 -11 20 -25 48 -106 361 -519 550 -727 81 -90 427 -433
502 -498 34 -30 68 -59 74 -65 55 -50 165 -142 226 -191 41 -32 77 -62 80 -65
3 -3 57 -43 120 -89 63 -46 120 -88 125 -92 28 -24 333 -218 342 -218 4 0 14
-6 22 -14 36 -30 352 -190 506 -256 32 -13 90 -35 95 -35 3 0 14 -6 25 -12 11
-5 58 -22 105 -37 47 -15 94 -31 105 -36 21 -8 162 -47 205 -56 14 -3 34 -7
45 -9 113 -25 161 -34 222 -40 32 -3 72 -9 88 -13 41 -8 455 -8 530 1 60 7 75
9 175 28 30 6 69 13 85 15 17 3 44 9 60 14 17 5 45 12 64 15 19 3 39 9 45 13
6 3 19 8 28 9 18 3 191 60 223 73 233 100 403 184 503 251 24 16 45 29 47 29
4 0 168 112 175 120 3 3 30 23 60 45 30 22 57 42 60 45 3 3 34 30 70 60 154
130 380 356 475 475 22 28 45 55 51 60 71 64 514 714 514 755 0 6 4 10 9 10 5
0 12 11 15 24 3 14 12 31 19 38 6 7 32 54 57 103 25 50 48 92 53 93 4 2 7 11
7 20 0 8 6 23 13 31 8 9 35 66 62 126 26 61 51 115 55 120 4 6 13 28 20 50 7
22 16 45 20 50 4 6 17 39 30 75 13 36 26 70 30 75 5 8 12 26 35 105 1 3 4 12
8 20 9 24 68 217 72 237 2 10 4 18 5 18 1 0 3 7 5 15 1 8 12 53 23 100 12 47
23 99 26 115 3 17 8 40 10 51 2 12 7 37 10 55 3 19 8 45 10 58 7 32 18 123 32
266 13 134 7 467 -10 493 -3 6 -2 13 4 17 6 4 8 11 4 16 -3 5 -7 19 -9 32 -20
124 -30 175 -51 252 -13 50 -26 98 -29 109 -18 75 -93 262 -141 351 -56 105
-141 232 -186 277 -14 14 -25 28 -23 30 5 5 -189 195 -239 233 -21 17 -70 51
-110 77 -39 26 -75 51 -81 56 -17 14 -243 123 -262 127 -10 2 -19 4 -20 5 -2
2 -6 3 -10 5 -5 1 -16 5 -25 9 -9 4 -22 9 -30 10 -7 2 -20 5 -28 8 -50 17 -89
28 -120 33 -19 3 -53 10 -75 15 -47 10 -115 19 -205 27 -125 12 -685 6 -685
-7 0 0 -21 -3 -46 -5 -43 -4 -71 -8 -128 -20 -12 -2 -42 -6 -65 -9 -24 -3 -54
-9 -68 -15 -13 -5 -40 -12 -59 -15 -146 -24 -438 -142 -569 -230 -198 -134
-313 -296 -337 -476 -14 -105 18 -262 72 -355 45 -77 148 -154 228 -171 44 -9
103 -17 130 -18 15 -1 27 -3 27 -6 0 -8 44 -5 58 4 7 4 12 3 12 -2 0 -5 12 -8
28 -6 15 2 68 6 117 9 50 3 104 7 121 9 17 3 64 8 105 11 79 8 91 9 184 21
189 26 323 -11 427 -117 79 -81 118 -183 114 -296 -3 -67 -8 -87 -39 -144 -37
-69 -69 -105 -134 -156 -42 -33 -163 -105 -163 -97 0 2 -10 -1 -22 -7 -25 -13
-130 -44 -218 -64 -188 -42 -303 -77 -327 -97 -7 -6 -13 -8 -13 -4 0 12 -119
-54 -129 -71 -6 -10 -11 -14 -11 -9 -1 32 -86 -104 -95 -153 -2 -9 -4 -17 -5
-18 -3 -4 -5 -12 -14 -63 -5 -25 -10 -54 -13 -65 -4 -20 -10 -76 -18 -170 -5
-63 -15 -364 -20 -600 -2 -99 -4 -180 -5 -180 -1 0 -3 -45 -5 -100 -2 -87 -7
-148 -21 -295 -1 -19 -4 -35 -4 -35 -1 0 -3 -16 -5 -35 -5 -44 -13 -97 -21
-130 -3 -14 -7 -36 -9 -50 -2 -14 -4 -25 -5 -25 -1 0 -3 -10 -5 -21 -18 -94
-99 -292 -143 -346 -92 -115 -171 -170 -285 -194 -178 -37 -336 9 -454 133
-34 37 -63 73 -63 80 0 7 -4 13 -8 13 -10 0 -106 190 -127 250 -1 3 -4 12 -8
20 -6 17 -31 92 -32 100 0 3 -11 37 -23 75 -12 39 -24 81 -26 95 -3 14 -12 50
-20 80 -8 30 -17 66 -19 80 -3 14 -12 61 -22 105 -15 72 -19 93 -29 160 -2 11
-4 20 -5 20 -1 0 -4 18 -6 40 -3 21 -7 55 -11 75 -3 19 -8 49 -9 65 -2 17 -11
71 -20 120 -9 50 -18 101 -20 115 -2 14 -4 25 -5 25 -1 0 -3 14 -4 30 -3 28
-13 95 -22 140 -3 11 -7 38 -10 60 -3 22 -9 63 -14 90 -5 28 -12 66 -14 85 -3
19 -8 46 -10 60 -2 14 -10 59 -16 100 -6 41 -14 86 -16 100 -3 14 -7 39 -10
55 -3 17 -12 64 -20 105 -9 41 -17 84 -19 95 -2 11 -6 31 -9 45 -2 14 -9 45
-15 70 -7 25 -14 56 -17 70 -9 43 -92 349 -124 460 -17 58 -33 112 -35 120 -2
8 -17 65 -34 125 -16 61 -32 121 -33 135 -2 14 -6 30 -10 35 -3 6 -9 37 -13
70 -4 33 -9 71 -11 85 -26 183 -21 361 13 505 4 17 7 32 8 35 3 19 50 132 68
165 54 100 180 243 292 331 27 21 55 44 62 49 27 22 41 32 125 88 47 31 91 57
96 57 6 0 12 4 14 9 7 21 368 200 368 183 0 -4 4 -2 8 4 6 9 220 88 267 99 11
2 40 11 65 18 25 8 48 15 53 16 4 0 8 1 10 2 51 16 207 46 282 55 22 3 54 9
70 14 17 5 48 11 70 14 22 2 47 7 55 10 13 4 45 10 120 20 14 2 25 5 25 6 0 1
16 3 35 5 19 1 64 8 100 15 36 7 78 14 93 16 76 9 174 24 201 30 11 3 35 7 51
9 17 3 41 8 55 11 14 3 32 7 40 8 172 30 291 74 328 121 42 53 17 134 -61 205
-80 72 -336 176 -502 203 -16 3 -55 11 -85 17 -30 6 -66 13 -80 15 -25 3 -92
12 -140 20 -14 2 -52 7 -85 10 -33 3 -80 7 -105 10 -25 3 -98 7 -163 10 -66 3
-123 7 -127 10 -5 3 -11 1 -15 -5 -4 -6 -11 -8 -16 -4 -15 9 -190 11 -195 2
-3 -4 -16 -3 -30 2 -29 12 -29 12 -36 5z"/>
<path d="M8289 6303 c-50 -13 -115 -52 -132 -79 -4 -7 -13 -19 -20 -26 -21
-21 -49 -88 -52 -124 -2 -18 -6 -38 -9 -43 -4 -5 -2 -12 3 -15 4 -3 9 -16 9
-29 0 -36 35 -108 73 -148 167 -179 476 -54 473 191 -2 186 -169 318 -345 273z"/>
<path d="M695 1244 c-14 -7 -25 -11 -25 -8 0 3 -6 -1 -14 -8 -7 -7 -23 -20
-35 -28 -71 -49 -94 -179 -47 -274 79 -161 331 -153 402 14 20 46 21 136 2
180 -19 45 -63 93 -105 114 -42 21 -145 27 -178 10z"/>
</g>
</svg>
